REM DIRINDEX 1\5,1\2\6,1\2\7,1\3\8,1\3\9,1\4\10,1\4\11,1\4\12
REM DIRNAME folder01,folder02,folder03,folder04,folder05,folder06,folder07,folder08,folder09,folder10,folder11,folder12
TITLE ""
FILE "EJE_DB3000_5th_5C_05.mp3" MP3
  TRACK 01 AUDIO
    TITLE "0:"
    INDEX 01 00:00:00
  TRACK 02 AUDIO
    TITLE "10:cjc026_10281"
    INDEX 01 00:00:05
  TRACK 03 AUDIO
    TITLE "0:"
    INDEX 01 00:00:58
  TRACK 04 AUDIO
    TITLE "11:cjc026_10282"
    INDEX 01 00:01:19
  TRACK 05 AUDIO
    TITLE "0:"
    INDEX 01 00:02:20
  TRACK 06 AUDIO
    TITLE "12:cjc026_10283"
    INDEX 01 00:02:45
  TRACK 07 AUDIO
    TITLE "0:"
    INDEX 01 00:03:23
  TRACK 08 AUDIO
    TITLE "10:cjc026_10284"
    INDEX 01 00:03:57
  TRACK 09 AUDIO
    TITLE "0:"
    INDEX 01 00:04:42
  TRACK 10 AUDIO
    TITLE "11:cjc026_10285"
    INDEX 01 00:04:68
  TRACK 11 AUDIO
    TITLE "0:"
    INDEX 01 00:05:61
  TRACK 12 AUDIO
    TITLE "12:cjc026_10286"
    INDEX 01 00:06:12
  TRACK 13 AUDIO
    TITLE "0:"
    INDEX 01 00:06:73
  TRACK 14 AUDIO
    TITLE "10:cjc026_10287"
    INDEX 01 00:07:23
  TRACK 15 AUDIO
    TITLE "0:"
    INDEX 01 00:08:30
  TRACK 16 AUDIO
    TITLE "11:cjc026_10288"
    INDEX 01 00:08:54
  TRACK 17 AUDIO
    TITLE "0:"
    INDEX 01 00:09:67
  TRACK 18 AUDIO
    TITLE "12:cjc026_10289"
    INDEX 01 00:10:16
  TRACK 19 AUDIO
    TITLE "0:"
    INDEX 01 00:11:23
  TRACK 20 AUDIO
    TITLE "10:cjc026_10290"
    INDEX 01 00:11:48
  TRACK 21 AUDIO
    TITLE "0:"
    INDEX 01 00:12:38
  TRACK 22 AUDIO
    TITLE "11:cjc026_10291"
    INDEX 01 00:12:65
  TRACK 23 AUDIO
    TITLE "0:"
    INDEX 01 00:13:73
  TRACK 24 AUDIO
    TITLE "12:cjc026_10292"
    INDEX 01 00:14:23
  TRACK 25 AUDIO
    TITLE "0:"
    INDEX 01 00:15:15
  TRACK 26 AUDIO
    TITLE "10:cjc026_10293"
    INDEX 01 00:15:42
  TRACK 27 AUDIO
    TITLE "0:"
    INDEX 01 00:16:30
  TRACK 28 AUDIO
    TITLE "11:cjc026_10294"
    INDEX 01 00:16:63
  TRACK 29 AUDIO
    TITLE "0:"
    INDEX 01 00:18:01
  TRACK 30 AUDIO
    TITLE "12:cjc026_10295"
    INDEX 01 00:18:27
  TRACK 31 AUDIO
    TITLE "0:"
    INDEX 01 00:19:16
  TRACK 32 AUDIO
    TITLE "10:cjc026_10296"
    INDEX 01 00:19:50
  TRACK 33 AUDIO
    TITLE "0:"
    INDEX 01 00:20:59
  TRACK 34 AUDIO
    TITLE "11:cjc026_10297"
    INDEX 01 00:21:11
  TRACK 35 AUDIO
    TITLE "0:"
    INDEX 01 00:22:15
  TRACK 36 AUDIO
    TITLE "12:cjc026_10298"
    INDEX 01 00:22:42
  TRACK 37 AUDIO
    TITLE "0:"
    INDEX 01 00:23:51
  TRACK 38 AUDIO
    TITLE "10:cjc026_10299"
    INDEX 01 00:24:04
  TRACK 39 AUDIO
    TITLE "0:"
    INDEX 01 00:24:71
  TRACK 40 AUDIO
    TITLE "11:cjc026_10300"
    INDEX 01 00:25:23
  TRACK 41 AUDIO
    TITLE "0:"
    INDEX 01 00:26:09
  TRACK 42 AUDIO
    TITLE "12:cjc026_10301"
    INDEX 01 00:26:36
  TRACK 43 AUDIO
    TITLE "0:"
    INDEX 01 00:27:28
  TRACK 44 AUDIO
    TITLE "10:cjc026_10302"
    INDEX 01 00:27:55
  TRACK 45 AUDIO
    TITLE "0:"
    INDEX 01 00:28:31
  TRACK 46 AUDIO
    TITLE "11:cjc026_10303"
    INDEX 01 00:28:66
  TRACK 47 AUDIO
    TITLE "0:"
    INDEX 01 00:30:08
  TRACK 48 AUDIO
    TITLE "12:cjc026_10304"
    INDEX 01 00:30:34
  TRACK 49 AUDIO
    TITLE "0:"
    INDEX 01 00:31:10
  TRACK 50 AUDIO
    TITLE "10:cjc026_10305"
    INDEX 01 00:31:45
  TRACK 51 AUDIO
    TITLE "0:"
    INDEX 01 00:32:39
  TRACK 52 AUDIO
    TITLE "11:cjc026_10306"
    INDEX 01 00:32:64
  TRACK 53 AUDIO
    TITLE "0:"
    INDEX 01 00:33:68
  TRACK 54 AUDIO
    TITLE "12:cjc026_10307"
    INDEX 01 00:34:18
  TRACK 55 AUDIO
    TITLE "0:"
    INDEX 01 00:35:12
  TRACK 56 AUDIO
    TITLE "10:cjc026_10308"
    INDEX 01 00:35:39
  TRACK 57 AUDIO
    TITLE "0:"
    INDEX 01 00:36:42
  TRACK 58 AUDIO
    TITLE "11:cjc026_10309"
    INDEX 01 00:36:70
  TRACK 59 AUDIO
    TITLE "0:"
    INDEX 01 00:37:69
  TRACK 60 AUDIO
    TITLE "12:cjc026_10310"
    INDEX 01 00:38:24
  TRACK 61 AUDIO
    TITLE "0:"
    INDEX 01 00:39:27
  TRACK 62 AUDIO
    TITLE "10:cjc026_10311"
    INDEX 01 00:39:52
  TRACK 63 AUDIO
    TITLE "0:"
    INDEX 01 00:40:56
  TRACK 64 AUDIO
    TITLE "11:cjc026_10312"
    INDEX 01 00:41:08
  TRACK 65 AUDIO
    TITLE "0:"
    INDEX 01 00:41:71
  TRACK 66 AUDIO
    TITLE "12:cjc026_10313"
    INDEX 01 00:42:21
  TRACK 67 AUDIO
    TITLE "0:"
    INDEX 01 00:43:25
  TRACK 68 AUDIO
    TITLE "10:cjc026_10314"
    INDEX 01 00:43:50
  TRACK 69 AUDIO
    TITLE "0:"
    INDEX 01 00:44:61
  TRACK 70 AUDIO
    TITLE "11:cjc026_10315"
    INDEX 01 00:45:12
  TRACK 71 AUDIO
    TITLE "0:"
    INDEX 01 00:46:06
  TRACK 72 AUDIO
    TITLE "12:cjc026_10316"
    INDEX 01 00:46:31
  TRACK 73 AUDIO
    TITLE "0:"
    INDEX 01 00:47:42
  TRACK 74 AUDIO
    TITLE "10:cjc026_10317"
    INDEX 01 00:47:70
  TRACK 75 AUDIO
    TITLE "0:"
    INDEX 01 00:49:04
  TRACK 76 AUDIO
    TITLE "11:cjc026_10318"
    INDEX 01 00:49:31
  TRACK 77 AUDIO
    TITLE "0:"
    INDEX 01 00:50:27
  TRACK 78 AUDIO
    TITLE "12:cjc026_10319"
    INDEX 01 00:50:52
  TRACK 79 AUDIO
    TITLE "0:"
    INDEX 01 00:51:62
  TRACK 80 AUDIO
    TITLE "10:cjc026_10320"
    INDEX 01 00:52:14
  TRACK 81 AUDIO
    TITLE "0:"
    INDEX 01 00:53:23
  TRACK 82 AUDIO
    TITLE "11:cjc026_10321"
    INDEX 01 00:53:51
  TRACK 83 AUDIO
    TITLE "0:"
    INDEX 01 00:54:56
  TRACK 84 AUDIO
    TITLE "12:cjc026_10322"
    INDEX 01 00:55:08
  TRACK 85 AUDIO
    TITLE "0:"
    INDEX 01 00:56:16
